<svg xmlns="http://www.w3.org/2000/svg" viewBox="0 0 100 100">
  <rect width="100" height="100" rx="24" fill="#EAB308" />
  <path
    d="M50,15 L22,25 V52 C22,70 50,83 50,83 C50,83 78,70 78,52 V25 Z"
    fill="#0F0F0F"
  />
  <path
    d="M39,48 V41 C39,34.5 44,30.5 50,30.5 C56,30.5 61,34.5 61,41 V48"
    fill="none"
    stroke="#EAB308"
    strokeWidth="5.5"
    strokeLinecap="round"
  />
  <path
    d="M33,48 H67 V68 C67,71.5 64,74.5 60,74.5 H40 C36,74.5 33,71.5 33,68 Z"
    fill="#EAB308"
  />
  <circle cx="50" cy="58" r="3.5" fill="#0F0F0F" />
  <polygon points="48,58 46.5,68 53.5,68 52,58" fill="#0F0F0F" />
</svg>
